<?xml version="1.0" encoding="utf-8"?>
<!-- Generator: Adobe Illustrator 16.0.0, SVG Export Plug-In . SVG Version: 6.00 Build 0)  -->
<!DOCTYPE svg PUBLIC "-//W3C//DTD SVG 1.1//EN" "http://www.w3.org/Graphics/SVG/1.1/DTD/svg11.dtd">
<svg version="1.1" id="Capa_1" xmlns="http://www.w3.org/2000/svg" xmlns:xlink="http://www.w3.org/1999/xlink" x="0px" y="0px"
	 width="601px" height="307.7px" viewBox="0 0 601 307.7" enable-background="new 0 0 601 307.7" xml:space="preserve">
<g>
	<linearGradient id="SVGID_1_" gradientUnits="userSpaceOnUse" x1="320.7295" y1="97.7446" x2="93.187" y2="170.2153">
		<stop  offset="0" style="stop-color:#952712"/>
		<stop  offset="5.648794e-02" style="stop-color:#A73820"/>
		<stop  offset="0.1485" style="stop-color:#BF4C32"/>
		<stop  offset="0.2472" style="stop-color:#CF5B3E"/>
		<stop  offset="0.3562" style="stop-color:#D96446"/>
		<stop  offset="0.496" style="stop-color:#DC6748"/>
		<stop  offset="0.6509" style="stop-color:#D96446"/>
		<stop  offset="0.7584" style="stop-color:#D05C3F"/>
		<stop  offset="0.8515" style="stop-color:#C14E33"/>
		<stop  offset="0.936" style="stop-color:#AB3B23"/>
		<stop  offset="1" style="stop-color:#952712"/>
	</linearGradient>
	<path fill-rule="evenodd" clip-rule="evenodd" fill="url(#SVGID_1_)" d="M387.8,87.9c-11.3-0.1-23.2-0.2-35.2-0.2
		c-5.4,0-10.8,0.3-16.2,0.6c-4.3,0.2-8.6,0.5-12.9,0.9c-4.7,0.4-9.4,0.9-14.1,1.4c-5.3,0.6-10.6,1-15.9,1.8
		c-6.6,0.9-13.3,1.9-19.9,3.1c-9.6,1.7-19.3,3.1-28.7,5.3c-13,3-25.9,6.5-38.8,9.9c-4.7,1.2-9.4,2.6-14,4.2
		c-14.4,5-28.7,10.2-42.7,16.4c-17,7.5-33.4,16-49.1,25.9c-20.3,12.9-38.9,27.7-54.2,46.3c-6.1,7.5-11.5,15.4-15.9,24
		c-0.2,0.4-0.5,0.8-0.9,1.1c1.3-2.7,2.5-5.5,3.9-8.2c8.5-16.9,19.6-31.8,32.8-45.4c18.6-19.2,40.1-34.5,63.5-47.4
		c15.4-8.5,31.4-15.7,47.9-21.8c19.6-7.3,39.6-13.2,60.1-17.7c6.7-1.5,13.4-2.7,20.1-4c5.2-1,10.5-2,15.8-2.8c4-0.6,8-0.9,11.9-1.5
		c5.3-0.8,10.7-0.9,16-0.8c5.1,0.1,10.2,0.3,15.3,0.6c4.2,0.2,8.4,0.5,12.6,0.9c4.6,0.4,9.2,0.9,13.8,1.4c3.9,0.4,7.7,0.7,11.6,1.2
		c3.9,0.5,7.7,1.1,11.6,1.6c4.2,0.6,8.4,1.1,12.6,1.8C382,86.9,385.3,87.5,387.8,87.9z"/>
	<linearGradient id="SVGID_2_" gradientUnits="userSpaceOnUse" x1="352.1279" y1="189.3472" x2="352.1279" y2="142.5464">
		<stop  offset="0" style="stop-color:#952712"/>
		<stop  offset="5.648794e-02" style="stop-color:#A73820"/>
		<stop  offset="0.1485" style="stop-color:#BF4C32"/>
		<stop  offset="0.2472" style="stop-color:#CF5B3E"/>
		<stop  offset="0.3562" style="stop-color:#D96446"/>
		<stop  offset="0.496" style="stop-color:#DC6748"/>
		<stop  offset="0.6509" style="stop-color:#D96446"/>
		<stop  offset="0.7584" style="stop-color:#D05C3F"/>
		<stop  offset="0.8515" style="stop-color:#C14E33"/>
		<stop  offset="0.936" style="stop-color:#AB3B23"/>
		<stop  offset="1" style="stop-color:#952712"/>
	</linearGradient>
	<path fill-rule="evenodd" clip-rule="evenodd" fill="url(#SVGID_2_)" d="M369.8,188.6c-2,0-3.7,0-5.5,0c-0.3,0-0.7-0.4-0.9-0.8
		c-0.4-0.7-0.8-1.5-1.2-2.3c-0.4,0.2-0.7,0.3-0.9,0.4c-10.6,7.1-25.8,3.2-30.2-11.7c-2.2-7.3-1.7-14.5,1.8-21.3
		c2.4-4.7,6.4-7.8,11.5-9.4c5-1.6,10-1.2,14.7,1.1c1,0.5,1.8,0.6,2.2-0.6c0.3-1,1.2-0.8,1.9-0.8c2.6,0,2.6,0,3.2,2.5
		c0.9,3.8,1.8,7.6,2.7,11.4c0.2,0.8,0.1,1.3-0.8,1.6c-1.4,0.4-2.9,1.4-4,1.1c-1-0.3-1.6-2-2.4-3.2c-2-3.2-4.7-5.6-8.4-6.5
		c-2.9-0.7-5.3,0.3-7.5,2c-3.4,2.7-4.5,6.6-4.8,10.6c-0.5,5.4,0.2,10.6,3.4,15.1c3.2,4.6,9.1,5.7,13.3,2.4c0.9-0.7,1.7-2.1,2-3.2
		c0.3-1.4,0.2-2.9,0.1-4.4c-0.1-1.2-0.7-2-2.1-2c-0.7,0-1.5,0-2.2-0.2c-0.4-0.1-0.9-0.7-1-1.1c-0.1-1.2-0.1-2.4-0.1-3.7
		c0-1.1,0.8-1,1.5-1c4.9,0,9.8,0,14.7,0c3.7,0,3.6,0,3.7,3.7c0,1.5-0.2,2.2-1.9,2.3c-2.2,0.1-2.8,0.3-2.8,3.4
		c-0.1,4.1,0.1,8.2,0.1,12.3C369.8,187,369.8,187.7,369.8,188.6z"/>
	<linearGradient id="SVGID_3_" gradientUnits="userSpaceOnUse" x1="154.3901" y1="189.3589" x2="154.3901" y2="142.5591">
		<stop  offset="0" style="stop-color:#952712"/>
		<stop  offset="5.648794e-02" style="stop-color:#A73820"/>
		<stop  offset="0.1485" style="stop-color:#BF4C32"/>
		<stop  offset="0.2472" style="stop-color:#CF5B3E"/>
		<stop  offset="0.3562" style="stop-color:#D96446"/>
		<stop  offset="0.496" style="stop-color:#DC6748"/>
		<stop  offset="0.6509" style="stop-color:#D96446"/>
		<stop  offset="0.7584" style="stop-color:#D05C3F"/>
		<stop  offset="0.8515" style="stop-color:#C14E33"/>
		<stop  offset="0.936" style="stop-color:#AB3B23"/>
		<stop  offset="1" style="stop-color:#952712"/>
	</linearGradient>
	<path fill-rule="evenodd" clip-rule="evenodd" fill="url(#SVGID_3_)" d="M144.6,185.5c-0.1,0.1-0.2,0.2-0.2,0.3
		c-1.4,3-1.4,3.1-4.6,2.7c-0.4,0-0.9-0.5-1-0.8c-0.9-5.1-1.7-10.1-2.4-15.2c-0.1-0.5,0.4-1.3,0.9-1.5c1-0.5,2.1-0.8,3.2-0.9
		c0.5,0,1.2,0.6,1.5,1.1c1.4,2.7,3.1,5.1,5.4,7.1c3.3,2.9,7,4.3,11.5,3.6c1-0.2,2-0.6,2.9-1.1c2.6-1.8,2.5-5.4-0.3-7
		c-2-1.2-4.3-2-6.5-2.8c-3.6-1.4-7.4-2.4-10.9-4.1c-4.8-2.2-6.9-6.2-6.9-11.5c-0.1-6.9,5.7-11.4,11.5-12.5c4.7-0.9,9.2-0.3,13.3,2.5
		c0.1-0.1,0.3-0.1,0.3-0.2c0.8-2.6,2.9-2.1,4.7-1.9c0.4,0,0.9,0.8,1,1.2c0.8,3.5,1.6,7,2.3,10.5c0.2,1.1,0.5,2.2,0.8,3.4
		c-1.6,0.5-3.2,1.1-4.7,1.4c-0.3,0.1-0.9-0.5-1.1-0.9c-1.9-3.5-4.5-6.2-8.1-7.9c-2.4-1.1-4.9-1.7-7.6-0.8c-1.6,0.6-2.6,1.5-3,3
		c-0.3,1.6,0.5,2.8,1.7,3.6c1.2,0.8,2.5,1.4,3.8,1.8c4,1.4,8.2,2.6,12.2,4.2c5.8,2.2,8.9,7.3,8.4,13.7c-0.4,5.1-4.4,10-10.1,11.7
		c-5.7,1.7-11.2,1.2-16.3-2.1c-0.4-0.2-0.7-0.5-1.1-0.7C144.9,185.5,144.8,185.6,144.6,185.5z"/>
	<linearGradient id="SVGID_4_" gradientUnits="userSpaceOnUse" x1="458.7852" y1="189.3237" x2="458.7852" y2="140.9033">
		<stop  offset="0" style="stop-color:#952712"/>
		<stop  offset="5.648794e-02" style="stop-color:#A73820"/>
		<stop  offset="0.1485" style="stop-color:#BF4C32"/>
		<stop  offset="0.2472" style="stop-color:#CF5B3E"/>
		<stop  offset="0.3562" style="stop-color:#D96446"/>
		<stop  offset="0.496" style="stop-color:#DC6748"/>
		<stop  offset="0.6509" style="stop-color:#D96446"/>
		<stop  offset="0.7584" style="stop-color:#D05C3F"/>
		<stop  offset="0.8515" style="stop-color:#C14E33"/>
		<stop  offset="0.936" style="stop-color:#AB3B23"/>
		<stop  offset="1" style="stop-color:#952712"/>
	</linearGradient>
	<path fill-rule="evenodd" clip-rule="evenodd" fill="url(#SVGID_4_)" d="M463.2,188.6c0-0.7,0-1.6,0-2.8c-0.8,0.5-1.4,0.9-2,1.3
		c-6.6,4.2-13.7,2.4-17.3-4.4c-0.9-1.7-1.6-3.5-2-5.4c-1.1-5.6-0.5-11,2.6-15.9c3.4-5.5,9.5-7.3,15.4-4.7c0.7,0.3,1.4,0.6,2.3,1
		c0-2.6,0-5,0-7.6c-1.4,0-2.8,0-4.3,0c0-2-0.1-3.9,0.1-5.7c0-0.3,0.7-0.9,1.1-0.9c3.2-0.3,6.3-1.1,9.3-2.4c0.7-0.3,1.7-0.2,2.5-0.1
		c0.2,0,0.6,0.5,0.6,0.8c0.1,0.7,0,1.5,0,2.3c-0.1,8.5-0.1,17.1-0.1,25.6c0,3.4,0.1,6.9,0.2,10.3c0,1.9,0.4,2.2,2.3,2.3
		c2.2,0.1,2.2,0.1,2.2,2.3c0,1,0.1,2,0,3c0,0.4-0.5,1-0.8,1C471.3,188.6,467.4,188.6,463.2,188.6z M462.3,173.1c0,0,0.1,0,0.1,0
		c0-1.6,0.1-3.3,0-4.9c-0.1-1.6-0.1-3.3-1.6-4.5c-2.8-2.2-6.5-1.3-8.1,1.8c-1.7,3.6-1.7,7.3-0.7,11c1.4,5.3,4.8,6.5,9.3,3.3
		c0.5-0.3,0.9-1.1,0.9-1.7C462.4,176.5,462.3,174.8,462.3,173.1z"/>
	<linearGradient id="SVGID_5_" gradientUnits="userSpaceOnUse" x1="393.0957" y1="189.3071" x2="393.0957" y2="155.5786">
		<stop  offset="0" style="stop-color:#952712"/>
		<stop  offset="5.648794e-02" style="stop-color:#A73820"/>
		<stop  offset="0.1485" style="stop-color:#BF4C32"/>
		<stop  offset="0.2472" style="stop-color:#CF5B3E"/>
		<stop  offset="0.3562" style="stop-color:#D96446"/>
		<stop  offset="0.496" style="stop-color:#DC6748"/>
		<stop  offset="0.6509" style="stop-color:#D96446"/>
		<stop  offset="0.7584" style="stop-color:#D05C3F"/>
		<stop  offset="0.8515" style="stop-color:#C14E33"/>
		<stop  offset="0.936" style="stop-color:#AB3B23"/>
		<stop  offset="1" style="stop-color:#952712"/>
	</linearGradient>
	<path fill-rule="evenodd" clip-rule="evenodd" fill="url(#SVGID_5_)" d="M394.4,189.3c-9,0-14.6-3.7-16.7-10.3
		c-1.6-5.1-1.5-10.3,0.9-15.1c3.1-6.3,9.9-9.1,17.3-8.2c7.7,1,13.5,7,13.7,16.1c0.1,4.5-0.8,8.6-3.8,12.1
		C402.5,187.8,398.1,189.4,394.4,189.3z M399.9,172.2c-0.3-2.9-0.7-5-1.9-6.9c-1.1-1.9-2.8-3-5-2.9c-2.2,0.1-3.9,1.2-4.9,3.1
		c-2.2,4.5-1.9,9,0,13.5c0.7,1.6,1.9,2.7,3.6,3.1c2.7,0.7,5.5-0.7,6.6-3.8C399.1,176.5,399.4,174.3,399.9,172.2z"/>
	<linearGradient id="SVGID_6_" gradientUnits="userSpaceOnUse" x1="301.7754" y1="189.1138" x2="301.7754" y2="155.48">
		<stop  offset="0" style="stop-color:#952712"/>
		<stop  offset="5.648794e-02" style="stop-color:#A73820"/>
		<stop  offset="0.1485" style="stop-color:#BF4C32"/>
		<stop  offset="0.2472" style="stop-color:#CF5B3E"/>
		<stop  offset="0.3562" style="stop-color:#D96446"/>
		<stop  offset="0.496" style="stop-color:#DC6748"/>
		<stop  offset="0.6509" style="stop-color:#D96446"/>
		<stop  offset="0.7584" style="stop-color:#D05C3F"/>
		<stop  offset="0.8515" style="stop-color:#C14E33"/>
		<stop  offset="0.936" style="stop-color:#AB3B23"/>
		<stop  offset="1" style="stop-color:#952712"/>
	</linearGradient>
	<path fill-rule="evenodd" clip-rule="evenodd" fill="url(#SVGID_6_)" d="M317.9,182.1c0,1.8-0.1,3.4,0,4.9c0.1,1-0.4,1.3-1.2,1.5
		c-4.5,0.9-8.6,0.7-11.3-3c-2.7,1.1-5.2,2.5-7.8,3.2c-5,1.3-9.7-1.1-11.3-5.3c-1.9-5,0.6-10.1,6-11.8c3.4-1.1,7-1.6,10.6-2.2
		c0.9-0.2,1.3-0.4,1.3-1.3c0-1.1,0-2.2-0.2-3.2c-0.2-1.8-1.1-2.8-2.6-3.1c-2-0.4-3.8,0.3-4.7,1.8c-0.7,1.2-1.2,2.5-2,3.6
		c-1,1.5-2.8,1.9-4.4,1.4c-1.7-0.6-2.7-1.9-2.9-3.8c-0.2-3.3,1.6-5.4,4.2-6.8c5.5-3,11.3-3.4,17-0.5c2.7,1.4,4,3.7,4.1,6.8
		c0.1,4.9,0.2,9.7,0.3,14.6c0.1,3.1,1.1,4,4.1,3.4C317.3,182.2,317.5,182.2,317.9,182.1z M304,177.2c0-0.5,0-1,0-1.5
		c0.1-1.1-0.3-1.5-1.5-1.3c-1.3,0.3-2.7,0.5-4,1c-2.6,0.8-3.8,2.9-3.1,4.9c0.7,1.9,2.9,2.4,5.5,1.4
		C303.1,180.8,304.7,179.9,304,177.2z"/>
	<linearGradient id="SVGID_7_" gradientUnits="userSpaceOnUse" x1="494.8789" y1="189.1167" x2="494.8789" y2="155.6509">
		<stop  offset="0" style="stop-color:#952712"/>
		<stop  offset="5.648794e-02" style="stop-color:#A73820"/>
		<stop  offset="0.1485" style="stop-color:#BF4C32"/>
		<stop  offset="0.2472" style="stop-color:#CF5B3E"/>
		<stop  offset="0.3562" style="stop-color:#D96446"/>
		<stop  offset="0.496" style="stop-color:#DC6748"/>
		<stop  offset="0.6509" style="stop-color:#D96446"/>
		<stop  offset="0.7584" style="stop-color:#D05C3F"/>
		<stop  offset="0.8515" style="stop-color:#C14E33"/>
		<stop  offset="0.936" style="stop-color:#AB3B23"/>
		<stop  offset="1" style="stop-color:#952712"/>
	</linearGradient>
	<path fill-rule="evenodd" clip-rule="evenodd" fill="url(#SVGID_7_)" d="M511,182.2c0,1.8,0.1,3.6-0.1,5.4c0,0.4-0.6,0.9-1.1,1
		c-4.4,1-8.6,0.8-11.4-3c-2.7,1.1-5.2,2.5-7.8,3.2c-4.4,1.2-8.5-0.5-10.6-3.8c-3.1-5-1.1-11,4.7-13.1c3.3-1.2,6.9-1.7,10.4-2.4
		c2-0.4,2-0.2,2-2.2c0-0.6,0-1.1,0-1.7c-0.1-2.2-1.1-3.5-2.7-3.8c-2.3-0.4-4.1,0.4-5.1,2.4c-0.5,1-1,2.1-1.7,3.1
		c-1,1.4-2.7,1.8-4.3,1.3c-1.8-0.6-2.8-2-3-3.7c-0.1-2.3,0.7-4,2.4-5.5c2.6-2.3,5.7-3.4,9-3.6c2.1-0.1,4.2-0.1,6.2,0.3
		c5.4,1.1,8,4.5,7.9,10.2c0,4.2,0,8.4,0.1,12.6c0,3.1,1.1,3.9,4.1,3.4C510.5,182.2,510.7,182.2,511,182.2z M497.1,174.1
		c-1.9,0.4-3.6,0.6-5.1,1.2c-1.1,0.4-2.3,1.2-3,2.2c-1.2,1.6-0.4,3.7,1.4,4.4c1.5,0.6,5.5-0.6,6.5-1.9c0.1-0.1,0.2-0.3,0.2-0.4
		C497.1,177.9,497.1,176.2,497.1,174.1z"/>
	<linearGradient id="SVGID_8_" gradientUnits="userSpaceOnUse" x1="212.2271" y1="189.354" x2="212.2271" y2="155.4946">
		<stop  offset="0" style="stop-color:#952712"/>
		<stop  offset="5.648794e-02" style="stop-color:#A73820"/>
		<stop  offset="0.1485" style="stop-color:#BF4C32"/>
		<stop  offset="0.2472" style="stop-color:#CF5B3E"/>
		<stop  offset="0.3562" style="stop-color:#D96446"/>
		<stop  offset="0.496" style="stop-color:#DC6748"/>
		<stop  offset="0.6509" style="stop-color:#D96446"/>
		<stop  offset="0.7584" style="stop-color:#D05C3F"/>
		<stop  offset="0.8515" style="stop-color:#C14E33"/>
		<stop  offset="0.936" style="stop-color:#AB3B23"/>
		<stop  offset="1" style="stop-color:#952712"/>
	</linearGradient>
	<path fill-rule="evenodd" clip-rule="evenodd" fill="url(#SVGID_8_)" d="M223.8,176.9c1.2,1.3,2.5,2.7,3.7,4
		c-3.4,5.9-11.2,9.5-17.6,8.2c-6.8-1.3-11.9-6.7-12.8-13.7c-0.9-6.8,0.8-12.7,6.5-16.9c6.3-4.6,15.3-3.8,19.9,1.8
		c2.2,2.7,3.4,5.9,3.4,9.5c0,2.6,0,2.6-2.6,2.6c-5.2,0-10.4,0-15.6,0c-1.6,0-1.7,0.2-1.5,1.7c0.6,4.1,2.9,6.9,6.3,7.6
		c2.2,0.5,4.1-0.3,5.9-1.4C220.9,179.4,222.3,178.1,223.8,176.9z M217.8,167.2c-0.1-2.1-0.7-3.8-2.5-4.9c-1.7-1.1-3.5-1-5.2,0.1
		c-1.7,1.1-2.5,2.6-2.4,4.8C211.1,167.2,214.4,167.2,217.8,167.2z"/>
	<linearGradient id="SVGID_9_" gradientUnits="userSpaceOnUse" x1="271.6313" y1="188.5923" x2="271.6313" y2="155.4868">
		<stop  offset="0" style="stop-color:#952712"/>
		<stop  offset="5.648794e-02" style="stop-color:#A73820"/>
		<stop  offset="0.1485" style="stop-color:#BF4C32"/>
		<stop  offset="0.2472" style="stop-color:#CF5B3E"/>
		<stop  offset="0.3562" style="stop-color:#D96446"/>
		<stop  offset="0.496" style="stop-color:#DC6748"/>
		<stop  offset="0.6509" style="stop-color:#D96446"/>
		<stop  offset="0.7584" style="stop-color:#D05C3F"/>
		<stop  offset="0.8515" style="stop-color:#C14E33"/>
		<stop  offset="0.936" style="stop-color:#AB3B23"/>
		<stop  offset="1" style="stop-color:#952712"/>
	</linearGradient>
	<path fill-rule="evenodd" clip-rule="evenodd" fill="url(#SVGID_9_)" d="M259.1,188.4c0-2,0-3.9,0-6c0.9-0.1,1.9,0.1,2.7-0.2
		c0.6-0.2,1.5-0.8,1.5-1.3c0.1-5.5,0.1-11,0.1-16.7c-1,0-1.9,0-2.8,0c-0.9,0.1-1.4-0.2-1.4-1.3c0.1-1.5-0.5-3.3,0.2-4.3
		c0.6-0.8,2.5-0.7,3.8-1.1c1.5-0.4,3-1,4.6-1.5c0.4-0.1,0.8-0.4,1.2-0.4c2.2-0.5,2.7-0.1,2.7,2.1c0,0.6,0,1.2,0.1,1.8
		c0,0.1,0.1,0.1,0.3,0.4c0.6-0.6,1.1-1.3,1.8-1.7c1.5-1,2.9-2.1,4.6-2.6c2-0.6,3.8,0.2,4.9,2.1c1.2,2.1,1.3,4.2,0,6.3
		c-1.2,2.1-3.2,2.6-5.8,1.7c-1.3-0.4-2.6-0.9-3.8,0c-0.5,0.4-1,1-1,1.6c0,4.4,0,8.8,0.1,13.1c0,1.3,1,1.6,2.1,1.6
		c2.4,0.2,2.4,0.2,2.4,2.5c0,0.9,0,1.8,0,2.7c0,0.7-0.2,1.1-1,1.1c-5.6,0-11.1,0-16.7,0C259.5,188.6,259.4,188.5,259.1,188.4z"/>
	<linearGradient id="SVGID_10_" gradientUnits="userSpaceOnUse" x1="244.3262" y1="188.6167" x2="244.3262" y2="155.4487">
		<stop  offset="0" style="stop-color:#952712"/>
		<stop  offset="5.648794e-02" style="stop-color:#A73820"/>
		<stop  offset="0.1485" style="stop-color:#BF4C32"/>
		<stop  offset="0.2472" style="stop-color:#CF5B3E"/>
		<stop  offset="0.3562" style="stop-color:#D96446"/>
		<stop  offset="0.496" style="stop-color:#DC6748"/>
		<stop  offset="0.6509" style="stop-color:#D96446"/>
		<stop  offset="0.7584" style="stop-color:#D05C3F"/>
		<stop  offset="0.8515" style="stop-color:#C14E33"/>
		<stop  offset="0.936" style="stop-color:#AB3B23"/>
		<stop  offset="1" style="stop-color:#952712"/>
	</linearGradient>
	<path fill-rule="evenodd" clip-rule="evenodd" fill="url(#SVGID_10_)" d="M249.9,188.5c-0.5,0-1,0.1-1.4,0.1c-5,0-10.1,0-15.1,0
		c-1.4,0-1.7-0.4-1.6-1.7c0.1-1.1,0.1-2.3,0-3.4c0-0.9,0.3-1.2,1.2-1.2c3.1-0.1,3.2-0.2,3.2-3.5c0-4.3,0-8.7,0.1-13
		c0-1.2-0.3-1.7-1.6-1.6c-3,0-2.8,0.6-2.8-2.8c0-3,0-2.9,3-3.6c2-0.4,3.8-1.2,5.8-1.8c1.2-0.3,2.4-0.4,3.9-0.6c0,1.7,0,3,0,4.8
		c1.1-1,1.8-1.7,2.6-2.4c1.4-1.3,3-2.2,4.9-2.2c2.1,0,3.6,1,4.4,3c0.9,2.2,0.8,4.3-0.7,6.2c-1.3,1.6-3.1,1.8-5,1.2
		c-1.5-0.5-3-1.1-4.4,0c-0.4,0.3-0.9,0.9-0.9,1.4c0,4.1,0,8.1,0.1,12.2c0.1,2.3,0.5,2.6,2.9,2.6c0.5,0,0.9,0,1.5,0.1
		C249.9,184.4,249.9,186.4,249.9,188.5z"/>
	<linearGradient id="SVGID_11_" gradientUnits="userSpaceOnUse" x1="426.5889" y1="188.7085" x2="426.5889" y2="155.5229">
		<stop  offset="0" style="stop-color:#952712"/>
		<stop  offset="5.648794e-02" style="stop-color:#A73820"/>
		<stop  offset="0.1485" style="stop-color:#BF4C32"/>
		<stop  offset="0.2472" style="stop-color:#CF5B3E"/>
		<stop  offset="0.3562" style="stop-color:#D96446"/>
		<stop  offset="0.496" style="stop-color:#DC6748"/>
		<stop  offset="0.6509" style="stop-color:#D96446"/>
		<stop  offset="0.7584" style="stop-color:#D05C3F"/>
		<stop  offset="0.8515" style="stop-color:#C14E33"/>
		<stop  offset="0.936" style="stop-color:#AB3B23"/>
		<stop  offset="1" style="stop-color:#952712"/>
	</linearGradient>
	<path fill-rule="evenodd" clip-rule="evenodd" fill="url(#SVGID_11_)" d="M427,160c0.7-0.7,1.3-1.4,2.1-2c1.3-0.9,2.7-1.9,4.1-2.2
		c2.7-0.7,5,0.9,5.7,3.6c0.5,2.1,0.3,4.2-1.3,5.8c-1.5,1.5-3.3,1.3-5.2,0.8c-0.5-0.1-0.9-0.3-1.3-0.4c-1.9-0.5-3.4,0.7-3.4,2.6
		c0,3.9,0,7.7,0.1,11.6c0,2.1,0.5,2.5,2.6,2.6c1.9,0.1,1.9,0.1,1.9,2c0,1.4,0.4,3.2-0.4,4c-0.6,0.7-2.6,0.3-3.9,0.3
		c-4.2,0-8.3,0-12.5,0c-0.5,0-0.9,0-1.4-0.1c0-2.1,0-4,0-6.2c0.9,0,1.7,0,2.5,0c1.1,0,1.7-0.5,1.7-1.6c0.1-5.2,0.2-10.4,0.2-15.6
		c0-0.7-0.4-0.9-1.1-0.9c-3.4-0.1-3.4-0.1-3.4-3.6c0,0,0-0.1,0-0.1c0-2,0-1.9,2-2.4c2.4-0.6,4.7-1.4,7-2.1c0.4-0.1,0.7-0.3,1.1-0.3
		c2.3-0.3,2.5-0.2,2.5,2.1c0,0.6,0,1.2,0.1,1.8C426.7,159.7,426.8,159.8,427,160z"/>
	<linearGradient id="SVGID_12_" gradientUnits="userSpaceOnUse" x1="184.8481" y1="188.6167" x2="184.8481" y2="155.5903">
		<stop  offset="0" style="stop-color:#952712"/>
		<stop  offset="5.648794e-02" style="stop-color:#A73820"/>
		<stop  offset="0.1485" style="stop-color:#BF4C32"/>
		<stop  offset="0.2472" style="stop-color:#CF5B3E"/>
		<stop  offset="0.3562" style="stop-color:#D96446"/>
		<stop  offset="0.496" style="stop-color:#DC6748"/>
		<stop  offset="0.6509" style="stop-color:#D96446"/>
		<stop  offset="0.7584" style="stop-color:#D05C3F"/>
		<stop  offset="0.8515" style="stop-color:#C14E33"/>
		<stop  offset="0.936" style="stop-color:#AB3B23"/>
		<stop  offset="1" style="stop-color:#952712"/>
	</linearGradient>
	<path fill-rule="evenodd" clip-rule="evenodd" fill="url(#SVGID_12_)" d="M193.8,188.6c-2.6,0-5.2,0-7.8,0c-2.9,0-5.9-0.1-8.8,0
		c-1.2,0-1.5-0.4-1.5-1.5c0.1-1.5,0-3,0-4.7c1-0.1,1.9-0.1,2.8-0.1c0.9,0,1.5-0.4,1.5-1.3c0-5.5,0-11,0-16.7c-1,0-2,0-3,0
		c-0.9,0-1.3-0.3-1.2-1.3c0.1-1,0.1-2,0-3c-0.2-1.3,0.5-1.7,1.6-1.8c3.1-0.3,6-0.9,8.8-2.4c0.5-0.3,1.3-0.2,1.9-0.3
		c0.9-0.1,1.3,0.3,1.2,1.2c-0.1,1.9-0.1,3.9,0,5.8c0,5.6,0,11.2,0.1,16.8c0,2.6,0.3,2.9,2.9,2.8c1.2,0,1.7,0.3,1.6,1.6
		c-0.1,1.4,0,2.7,0,4.1C194,188.1,193.9,188.2,193.8,188.6z"/>
	<linearGradient id="SVGID_13_" gradientUnits="userSpaceOnUse" x1="561.9082" y1="189.3179" x2="561.9082" y2="172.4976">
		<stop  offset="0" style="stop-color:#952712"/>
		<stop  offset="5.648794e-02" style="stop-color:#A73820"/>
		<stop  offset="0.1485" style="stop-color:#BF4C32"/>
		<stop  offset="0.2472" style="stop-color:#CF5B3E"/>
		<stop  offset="0.3562" style="stop-color:#D96446"/>
		<stop  offset="0.496" style="stop-color:#DC6748"/>
		<stop  offset="0.6509" style="stop-color:#D96446"/>
		<stop  offset="0.7584" style="stop-color:#D05C3F"/>
		<stop  offset="0.8515" style="stop-color:#C14E33"/>
		<stop  offset="0.936" style="stop-color:#AB3B23"/>
		<stop  offset="1" style="stop-color:#952712"/>
	</linearGradient>
	<path fill-rule="evenodd" clip-rule="evenodd" fill="url(#SVGID_13_)" d="M565.9,176.1c-0.6,2.1-1.3,4.1-1.9,6.2
		c-0.5,2-1,4.1-1.4,6.2c-0.2,0.9-0.7,0.9-1.3,0.9c-0.7,0-1.1-0.1-1.3-0.9c-0.9-3.5-1.8-7-2.7-10.5c-0.1-0.5-0.3-1-0.8-1.4
		c-0.1,0.4-0.2,0.8-0.2,1.3c0,2.5,0.1,4.9,0.1,7.3c0.1,1.7,0.1,1.7,1.8,2.1c0.4,2.1,0.3,2.1-1.8,2.1c-1.4,0-2.7,0-4.2,0
		c0-0.8,0-1.4,0-2.2c1.7,0.1,1.9-1,1.9-2.3c0-2.7,0-5.4,0.1-8.1c0-1-0.1-2-1.4-2.3c-0.3-0.1-0.6-0.8-0.5-1.2c0-0.3,0.6-0.7,0.9-0.7
		c1.6-0.1,3.1,0,4.7-0.1c0.9,0,1.3,0.3,1.6,1.2c0.6,2.4,1.2,4.8,1.8,7.3c0.1,0.5,0.3,0.9,0.5,1.4c0.1,0,0.3,0,0.4,0
		c0.3-1,0.6-2.1,0.9-3.1c0.5-1.9,1-3.7,1.4-5.6c0.2-0.8,0.6-1.2,1.5-1.2c1.6,0.1,3.1,0,4.7,0.1c0.4,0,1,0.5,1,0.7
		c0,0.4-0.3,1.2-0.6,1.3c-1,0.3-1,0.9-1,1.7c0,3,0.1,5.9,0,8.9c0,1.2,0.3,1.9,1.7,1.8c0,0.7,0,1.4,0,2.2c-2.4,0-4.7,0-7.2,0
		c0-0.7,0-1.3,0-2.1c1.8,0.1,1.9-1.1,1.9-2.5c0-2.5,0-4.9,0-7.4c0-0.4-0.1-0.8-0.1-1.2C566.1,176.1,566,176.1,565.9,176.1z"/>
	<linearGradient id="SVGID_14_" gradientUnits="userSpaceOnUse" x1="527.5381" y1="189.5972" x2="527.5381" y2="172.3901">
		<stop  offset="0" style="stop-color:#952712"/>
		<stop  offset="5.648794e-02" style="stop-color:#A73820"/>
		<stop  offset="0.1485" style="stop-color:#BF4C32"/>
		<stop  offset="0.2472" style="stop-color:#CF5B3E"/>
		<stop  offset="0.3562" style="stop-color:#D96446"/>
		<stop  offset="0.496" style="stop-color:#DC6748"/>
		<stop  offset="0.6509" style="stop-color:#D96446"/>
		<stop  offset="0.7584" style="stop-color:#D05C3F"/>
		<stop  offset="0.8515" style="stop-color:#C14E33"/>
		<stop  offset="0.936" style="stop-color:#AB3B23"/>
		<stop  offset="1" style="stop-color:#952712"/>
	</linearGradient>
	<path fill-rule="evenodd" clip-rule="evenodd" fill="url(#SVGID_14_)" d="M533.5,177.8c-1.2,0.8-1.9,0.6-2.5-0.5
		c-1-1.6-2.4-2.6-4.4-2.6c-1,0-2.1,0.2-2.1,1.3c0,0.6,0.8,1.6,1.5,1.9c1.5,0.7,3.1,1.1,4.6,1.7c2.7,1,4,3,3.7,5.5
		c-0.3,2.3-2.4,4.1-5.1,4.4c-1.9,0.2-2.9,0-5.2-1.2c-0.1,0.2-0.2,0.5-0.5,0.6c-0.4,0.2-0.8,0.4-1.2,0.4c-0.3,0-0.6-0.5-0.7-0.8
		c-0.3-1.5-0.6-3-0.7-4.5c0-0.4,0.3-1.1,0.7-1.2c0.4-0.1,1,0.2,1.4,0.5c0.9,0.9,1.6,2.1,2.7,2.8c1,0.6,2.3,0.8,3.5,0.8
		c0.6,0,1.6-0.9,1.7-1.5c0.1-0.5-0.6-1.5-1.2-1.8c-1.4-0.7-2.9-1.1-4.3-1.7c-2-0.7-3.8-1.8-4.1-4.2c-0.4-2.5,1.4-4.9,4.1-5.2
		c1.4-0.2,2.8,0.3,4.3,0.4c0.4,0,0.9,0,1.3-0.1c0.9-0.3,1.5-0.4,1.7,0.8C532.8,175,533.2,176.4,533.5,177.8z"/>
	<linearGradient id="SVGID_15_" gradientUnits="userSpaceOnUse" x1="543.1992" y1="189.5718" x2="543.1992" y2="172.228">
		<stop  offset="0" style="stop-color:#952712"/>
		<stop  offset="5.648794e-02" style="stop-color:#A73820"/>
		<stop  offset="0.1485" style="stop-color:#BF4C32"/>
		<stop  offset="0.2472" style="stop-color:#CF5B3E"/>
		<stop  offset="0.3562" style="stop-color:#D96446"/>
		<stop  offset="0.496" style="stop-color:#DC6748"/>
		<stop  offset="0.6509" style="stop-color:#D96446"/>
		<stop  offset="0.7584" style="stop-color:#D05C3F"/>
		<stop  offset="0.8515" style="stop-color:#C14E33"/>
		<stop  offset="0.936" style="stop-color:#AB3B23"/>
		<stop  offset="1" style="stop-color:#952712"/>
	</linearGradient>
	<path fill-rule="evenodd" clip-rule="evenodd" fill="url(#SVGID_15_)" d="M549.5,183.5c0.4,0.3,0.9,0.7,1.3,1
		c-1.4,3.4-4.8,5.4-8.6,5c-3.2-0.3-5.8-2.9-6.5-6.4c-0.7-3.6-0.1-6.8,2.7-9.3c2.2-1.9,4.7-1.9,7.3-1.3c0.6,0.1,1.2,0.1,1.8,0
		c0.7-0.1,1.3-0.1,1.5,0.8c0.3,1.4,0.7,2.7,1,4.1c0.1,0.3-0.2,1-0.5,1c-0.4,0.1-1,0-1.3-0.3c-0.4-0.4-0.7-1-1-1.5
		c-1-1.4-2.3-2.3-4.1-2c-1.7,0.3-2.7,1.5-3.2,3c-0.8,2.3-0.6,4.6,0.8,6.8c1.4,2.3,3.8,2.9,6.1,1.4
		C547.7,185.3,548.5,184.4,549.5,183.5z"/>
	<linearGradient id="SVGID_16_" gradientUnits="userSpaceOnUse" x1="184.7144" y1="140.9326" x2="184.7144" y2="152.979">
		<stop  offset="0" style="stop-color:#952712"/>
		<stop  offset="0.3269" style="stop-color:#A93921"/>
		<stop  offset="0.9917" style="stop-color:#DB6647"/>
		<stop  offset="1" style="stop-color:#DC6748"/>
	</linearGradient>
	<path fill-rule="evenodd" clip-rule="evenodd" fill="url(#SVGID_16_)" d="M190.1,146.9c0.4,3-2.4,6-5.1,6.1c-3.1,0.1-5.9-2.7-5.8-6
		c0.1-3.3,2.5-6,5.5-6.1C187.7,140.9,190.5,143.8,190.1,146.9z"/>
	<path fill-rule="evenodd" clip-rule="evenodd" fill="#C5C5C5" d="M511,117.1c-23.8-22.7-185.5-44.8-349.8,20.1
		C272.7,100.8,450.1,104.4,511,117.1z"/>
	<path fill-rule="evenodd" clip-rule="evenodd" fill="#E2A25D" d="M571.6,144.5c0,0-27.1-12.4-46-17.7c-20.4-2.7-126-18.3-277.7,3.2
		c23.9,0,38.9-3,92.1,5.3C393.7,133.6,464.1,129.5,571.6,144.5z"/>
</g>
</svg>
